<svg width="145" height="139" viewBox="0 0 145 139" fill="none" xmlns="http://www.w3.org/2000/svg">
<g clip-path="url(#clip0)">
<path d="M95.0343 90.8934C88.3213 97.3693 89.1604 110.437 89.1604 110.437H55.116C55.116 110.437 55.8353 97.3693 49.2421 90.8934C41.9298 84.6488 37.2547 75.6289 37.2547 65.5681C37.2547 47.0656 52.8384 32.0323 72.0183 32.0323C91.1983 32.0323 106.782 47.0656 106.782 65.5681C106.782 75.6289 102.227 84.6488 95.0343 90.8934Z" fill="#FACC07"/>
<path d="M90.1194 120.729C90.1194 122.463 88.6809 123.851 86.8828 123.851H57.2738C55.4756 123.851 54.0371 122.463 54.0371 120.729C54.0371 118.994 55.4756 117.606 57.2738 117.606H86.7629C88.5611 117.606 90.1194 118.994 90.1194 120.729Z" fill="#E5E5E5"/>
<path d="M85.6841 133.68C85.6841 135.415 84.2456 136.803 82.4475 136.803H61.7091C59.911 136.803 58.4725 135.415 58.4725 133.68C58.4725 131.946 59.911 130.558 61.7091 130.558H82.4475C84.2456 130.558 85.6841 131.946 85.6841 133.68Z" fill="#E5E5E5"/>
<path d="M96.8324 92.0499C104.624 85.2271 109.06 75.6289 109.06 65.5682C109.06 45.9093 92.3971 29.8352 72.0183 29.8352C51.6396 29.8352 34.977 45.9093 34.977 65.5682C34.977 75.8602 39.6522 85.6896 47.5639 92.3968C53.4378 98.0632 52.8384 110.09 52.8384 110.205C52.8384 110.784 53.0781 111.362 53.4378 111.824C53.9173 112.287 54.5166 112.518 55.116 112.518H89.0406C89.6399 112.518 90.2393 112.287 90.7188 111.824C91.1983 111.362 91.3182 110.784 91.3182 110.205C91.3182 110.09 90.7188 98.0632 96.5927 92.3968C96.7125 92.2811 96.8324 92.1655 96.8324 92.0499ZM93.4759 89.1588C93.2362 89.2745 93.1163 89.5058 92.9964 89.737C87.7219 95.1721 86.8828 104.076 86.7629 108.24H57.3936C57.2737 103.961 56.3148 94.7096 50.6806 89.2745C43.608 83.2612 39.5323 74.7038 39.5323 65.6838C39.5323 48.3377 54.157 34.3452 72.0183 34.3452C89.9996 34.3452 104.504 48.4533 104.504 65.6838C104.504 74.5881 100.549 83.2612 93.4759 89.1588Z" fill="#210B20"/>
<path d="M72.0183 39.0864C70.8196 39.0864 69.7407 40.0116 69.7407 41.2836C69.7407 42.44 70.6997 43.4808 72.0183 43.4808C85.4443 43.4808 96.3529 54.0041 96.3529 66.9558C96.3529 68.1122 97.3119 69.153 98.6305 69.153C99.8293 69.153 100.908 68.2279 100.908 66.9558C100.908 51.5756 87.9617 39.0864 72.0183 39.0864Z" fill="#210B20"/>
<path d="M92.397 120.729C92.397 117.722 89.8797 115.409 86.8828 115.409H57.2737C54.157 115.409 51.7595 117.838 51.7595 120.729C51.7595 123.735 54.2769 126.048 57.2737 126.048H86.7629C89.8797 126.048 92.397 123.735 92.397 120.729ZM86.7629 121.654H57.2737C56.6744 121.654 56.3147 121.191 56.3147 120.729C56.3147 120.15 56.7942 119.804 57.2737 119.804H86.7629C87.3623 119.804 87.7219 120.266 87.7219 120.729C87.8418 121.307 87.3623 121.654 86.7629 121.654Z" fill="#210B20"/>
<path d="M82.4474 128.361H61.7091C58.5924 128.361 56.1949 130.789 56.1949 133.68C56.1949 136.687 58.7122 139 61.7091 139H82.4474C85.5642 139 87.9617 136.571 87.9617 133.68C87.9617 130.789 85.4443 128.361 82.4474 128.361ZM82.4474 134.606H61.7091C61.1097 134.606 60.7501 134.143 60.7501 133.68C60.7501 133.102 61.2296 132.755 61.7091 132.755H82.4474C83.0468 132.755 83.4064 133.218 83.4064 133.68C83.4064 134.259 83.0468 134.606 82.4474 134.606Z" fill="#210B20"/>
<path d="M74.296 16.999V2.19705C74.296 1.04064 73.337 -0.00012207 72.0183 -0.00012207C70.8196 -0.00012207 69.7407 0.925003 69.7407 2.19705V17.1147C69.7407 18.2711 70.6997 19.3119 72.0183 19.3119C73.337 19.1962 74.296 18.2711 74.296 16.999Z" fill="#210B20"/>
<path d="M109.779 10.9858C108.7 10.292 107.381 10.6389 106.662 11.564L98.151 23.9376C97.4318 24.9783 97.7914 26.2504 98.7504 26.9442C99.11 27.1755 99.5895 27.2911 99.9491 27.2911C100.668 27.2911 101.388 26.9442 101.867 26.366L110.378 13.9925C111.098 13.0673 110.738 11.6797 109.779 10.9858Z" fill="#210B20"/>
<path d="M44.9266 26.8285C45.2863 26.8285 45.7658 26.7129 46.1254 26.4816C47.2043 25.7878 47.444 24.5157 46.8446 23.475L38.5733 10.9858C37.854 9.94501 36.5354 9.71373 35.4565 10.2919C34.3777 10.9858 34.1379 12.2578 34.7373 13.2986L43.0086 25.7878C43.4881 26.4816 44.2074 26.8285 44.9266 26.8285Z" fill="#210B20"/>
<path d="M13.1598 37.2361L26.7057 44.2902C27.0653 44.5215 27.4249 44.5215 27.7846 44.5215C28.6237 44.5215 29.3429 44.0589 29.8224 43.3651C30.4218 42.3243 30.0622 40.9366 28.8634 40.3584L15.3176 33.3043C14.2387 32.7261 12.8002 33.0731 12.2008 34.2295C11.7213 35.3859 12.081 36.6579 13.1598 37.2361Z" fill="#210B20"/>
<path d="M116.252 44.6371C116.612 44.6371 116.971 44.5215 117.331 44.4058L130.877 37.3518C131.956 36.7735 132.435 35.5015 131.836 34.3451C131.236 33.3043 129.918 32.8418 128.719 33.42L115.173 40.474C114.094 41.0523 113.615 42.3243 114.214 43.4807C114.574 44.1745 115.413 44.6371 116.252 44.6371Z" fill="#210B20"/>
</g>
<defs>
<clipPath id="clip0">
<rect width="144.089" height="139" fill="white" transform="translate(0 -0.00012207)"/>
</clipPath>
</defs>
</svg>
